<svg width="1220" height="769" viewBox="0 0 1220 769" fill="none" xmlns="http://www.w3.org/2000/svg">
<g filter="url(#filter0_f_67_452)">
<path d="M509.064 528.813L608.397 586.204V700.985L509.064 758.376L409.73 700.985V586.204L509.064 528.813Z" fill="#BC69B4" fill-opacity="0.1"/>
<path d="M210.27 356.641L309.603 414.031V528.813L210.27 586.204L110.936 528.813V414.031L210.27 356.641Z" fill="#BC69B4" fill-opacity="0.1"/>
<path d="M609.427 355.493L708.76 412.884V527.665L609.427 585.056L510.093 527.665V412.884L609.427 355.493Z" fill="#BC69B4" fill-opacity="0.1"/>
<path d="M1110.67 181.599L1210 238.989V353.771L1110.67 411.162L1011.33 353.771V238.989L1110.67 181.599Z" fill="#BC69B4" fill-opacity="0.1"/>
<path d="M609.427 239.563L510.093 182.172V67.3908L609.427 10L708.76 67.3908V182.172L609.427 239.563Z" fill="#BC69B4" fill-opacity="0.1"/>
<path d="M408.701 10L508.034 67.3908V182.172L408.701 239.563L309.368 182.172V67.3908L408.701 10Z" fill="#BC69B4" fill-opacity="0.1"/>
<path d="M810.152 585.056L710.819 527.665V412.884L810.152 355.493L909.485 412.884V527.665L810.152 585.056Z" fill="#BC69B4" fill-opacity="0.1"/>
<path d="M208.549 10L307.882 67.3908V182.172L208.549 239.563L109.216 182.172V67.3908L208.549 10Z" fill="#BC69B4" fill-opacity="0.1"/>
<path d="M509.064 183.894L608.397 241.285V356.067L509.064 413.457L409.73 356.067V241.285L509.064 183.894Z" fill="#BC69B4" fill-opacity="0.1"/>
<path d="M1010.3 10L1109.64 67.3908V182.172L1010.3 239.563L910.971 182.172V67.3908L1010.3 10Z" fill="#BC69B4" fill-opacity="0.1"/>
<path d="M709.789 411.162L610.456 353.771V238.989L709.789 181.599L809.123 238.989V353.771L709.789 411.162Z" fill="#BC69B4" fill-opacity="0.1"/>
<path d="M408.701 355.493L508.034 412.884V527.665L408.701 585.056L309.368 527.665V412.884L408.701 355.493Z" fill="#BC69B4" fill-opacity="0.1"/>
<path d="M909.941 181.599L1009.27 238.989V353.771L909.941 411.162L810.608 353.771V238.989L909.941 181.599Z" fill="#BC69B4" fill-opacity="0.1"/>
<path d="M109.333 183.894L208.667 241.285V356.067L109.333 413.457L10 356.067V241.285L109.333 183.894Z" fill="#BC69B4" fill-opacity="0.1"/>
</g>
<defs>
<filter id="filter0_f_67_452" x="0" y="0" width="1220" height="768.376" filterUnits="userSpaceOnUse" color-interpolation-filters="sRGB">
<feFlood flood-opacity="0" result="BackgroundImageFix"/>
<feBlend mode="normal" in="SourceGraphic" in2="BackgroundImageFix" result="shape"/>
<feGaussianBlur stdDeviation="5" result="effect1_foregroundBlur_67_452"/>
</filter>
</defs>
</svg>
