<svg width="1300" height="850" viewBox="0 0 1300 850" fill="none" xmlns="http://www.w3.org/2000/svg">
<g filter="url(#filter0_f_174_73)">
<path d="M549.064 569.813L648.397 627.204V741.985L549.064 799.376L449.73 741.985V627.204L549.064 569.813Z" fill="#BC69B4" fill-opacity="0.1"/>
<path d="M250.27 397.641L349.603 455.031V569.813L250.27 627.204L150.936 569.813V455.031L250.27 397.641Z" fill="#BC69B4" fill-opacity="0.1"/>
<path d="M649.427 396.493L748.76 453.884V568.665L649.427 626.056L550.093 568.665V453.884L649.427 396.493Z" fill="#BC69B4" fill-opacity="0.1"/>
<path d="M1150.67 222.599L1250 279.989V394.771L1150.67 452.162L1051.33 394.771V279.989L1150.67 222.599Z" fill="#BC69B4" fill-opacity="0.1"/>
<path d="M649.427 280.563L550.093 223.172V108.391L649.427 51L748.76 108.391V223.172L649.427 280.563Z" fill="#BC69B4" fill-opacity="0.1"/>
<path d="M448.701 51L548.034 108.391V223.172L448.701 280.563L349.368 223.172V108.391L448.701 51Z" fill="#BC69B4" fill-opacity="0.1"/>
<path d="M850.152 626.056L750.819 568.665V453.884L850.152 396.493L949.485 453.884V568.665L850.152 626.056Z" fill="#BC69B4" fill-opacity="0.1"/>
<path d="M248.549 51L347.882 108.391V223.172L248.549 280.563L149.216 223.172V108.391L248.549 51Z" fill="#BC69B4" fill-opacity="0.1"/>
<path d="M549.064 224.894L648.397 282.285V397.067L549.064 454.457L449.73 397.067V282.285L549.064 224.894Z" fill="#BC69B4" fill-opacity="0.1"/>
<path d="M1050.3 51L1149.64 108.391V223.172L1050.3 280.563L950.971 223.172V108.391L1050.3 51Z" fill="#BC69B4" fill-opacity="0.1"/>
<path d="M749.789 452.162L650.456 394.771V279.989L749.789 222.599L849.123 279.989V394.771L749.789 452.162Z" fill="#BC69B4" fill-opacity="0.1"/>
<path d="M448.701 396.493L548.034 453.884V568.665L448.701 626.056L349.368 568.665V453.884L448.701 396.493Z" fill="#BC69B4" fill-opacity="0.1"/>
<path d="M949.941 222.599L1049.27 279.989V394.771L949.941 452.162L850.608 394.771V279.989L949.941 222.599Z" fill="#BC69B4" fill-opacity="0.1"/>
<path d="M149.333 224.894L248.667 282.285V397.067L149.333 454.457L50 397.067V282.285L149.333 224.894Z" fill="#BC69B4" fill-opacity="0.1"/>
</g>
<defs>
<filter id="filter0_f_174_73" x="48" y="49" width="1204" height="752.376" filterUnits="userSpaceOnUse" color-interpolation-filters="sRGB">
<feFlood flood-opacity="0" result="BackgroundImageFix"/>
<feBlend mode="normal" in="SourceGraphic" in2="BackgroundImageFix" result="shape"/>
<feGaussianBlur stdDeviation="1" result="effect1_foregroundBlur_174_73"/>
</filter>
</defs>
</svg>
