<svg width="16" height="20" viewBox="0 0 16 20" fill="none" xmlns="http://www.w3.org/2000/svg">
<path d="M15.2 3.99996V18.8C15.2 19.4648 14.6648 20 14 20H1.20002C0.535209 20 0 19.4648 0 18.8V1.19995C0 0.535152 0.535209 0 1.20002 0H11.2" fill="#6888FF"/>
<path d="M11.2002 0V2.79996C11.2002 3.46476 11.7354 3.99996 12.4002 3.99996H15.2002L11.2002 0Z" fill="#A6C5FA"/>
<path fill-rule="evenodd" clip-rule="evenodd" d="M3.20599 8.39945C3.15299 8.3987 3.10036 8.4085 3.05117 8.42826C3.00199 8.44803 2.95722 8.47737 2.91947 8.51459C2.88172 8.55181 2.85175 8.59616 2.83129 8.64506C2.81083 8.69396 2.80029 8.74644 2.80029 8.79946C2.80029 8.85247 2.81083 8.90495 2.83129 8.95385C2.85175 9.00275 2.88172 9.0471 2.91947 9.08432C2.95722 9.12154 3.00199 9.15088 3.05117 9.17065C3.10036 9.19041 3.15299 9.20021 3.20599 9.19946H8.506H11.9998C12.0528 9.20021 12.1054 9.19041 12.1546 9.17065C12.2038 9.15088 12.2485 9.12154 12.2863 9.08432C12.324 9.0471 12.354 9.00275 12.3745 8.95385C12.3949 8.90495 12.4055 8.85247 12.4055 8.79946C12.4055 8.74644 12.3949 8.69396 12.3745 8.64506C12.354 8.59616 12.324 8.55181 12.2863 8.51459C12.2485 8.47737 12.2038 8.44803 12.1546 8.42826C12.1054 8.4085 12.0528 8.3987 11.9998 8.39945H8.506H3.20599Z" fill="#F9F9F9"/>
<path fill-rule="evenodd" clip-rule="evenodd" d="M3.20599 9.99955C3.15299 9.9988 3.10036 10.0086 3.05117 10.0284C3.00199 10.0481 2.95722 10.0775 2.91947 10.1147C2.88172 10.1519 2.85175 10.1963 2.83129 10.2452C2.81083 10.2941 2.80029 10.3465 2.80029 10.3996C2.80029 10.4526 2.81083 10.505 2.83129 10.5539C2.85175 10.6029 2.88172 10.6472 2.91947 10.6844C2.95722 10.7216 3.00199 10.751 3.05117 10.7707C3.10036 10.7905 3.15299 10.8003 3.20599 10.7996H8.506H11.9998C12.0528 10.8003 12.1054 10.7905 12.1546 10.7707C12.2038 10.751 12.2485 10.7216 12.2863 10.6844C12.324 10.6472 12.354 10.6029 12.3745 10.5539C12.3949 10.505 12.4055 10.4526 12.4055 10.3996C12.4055 10.3465 12.3949 10.2941 12.3745 10.2452C12.354 10.1963 12.324 10.1519 12.2863 10.1147C12.2485 10.0775 12.2038 10.0481 12.1546 10.0284C12.1054 10.0086 12.0528 9.9988 11.9998 9.99955H8.506H3.20599Z" fill="#F9F9F9"/>
<path fill-rule="evenodd" clip-rule="evenodd" d="M3.20599 13.1997C3.15299 13.199 3.10036 13.2088 3.05117 13.2286C3.00199 13.2483 2.95722 13.2777 2.91947 13.3149C2.88172 13.3521 2.85175 13.3965 2.83129 13.4454C2.81083 13.4943 2.80029 13.5467 2.80029 13.5997C2.80029 13.6528 2.81083 13.7052 2.83129 13.7541C2.85175 13.803 2.88172 13.8474 2.91947 13.8846C2.95722 13.9218 3.00199 13.9512 3.05117 13.9709C3.10036 13.9907 3.15299 14.0005 3.20599 13.9997H6.69975H8.79975C8.85276 14.0005 8.90538 13.9907 8.95457 13.9709C9.00376 13.9512 9.04853 13.9218 9.08628 13.8846C9.12402 13.8474 9.154 13.803 9.17446 13.7541C9.19492 13.7052 9.20545 13.6528 9.20545 13.5997C9.20545 13.5467 9.19492 13.4943 9.17446 13.4454C9.154 13.3965 9.12402 13.3521 9.08628 13.3149C9.04853 13.2777 9.00376 13.2483 8.95457 13.2286C8.90538 13.2088 8.85276 13.199 8.79975 13.1997H6.69975H3.20599ZM10.3998 13.1997C10.3468 13.199 10.2941 13.2088 10.2449 13.2286C10.1958 13.2483 10.151 13.2777 10.1132 13.3149C10.0755 13.3521 10.0455 13.3965 10.0251 13.4454C10.0046 13.4943 9.99406 13.5467 9.99406 13.5997C9.99406 13.6528 10.0046 13.7052 10.0251 13.7541C10.0455 13.803 10.0755 13.8474 10.1132 13.8846C10.151 13.9218 10.1958 13.9512 10.2449 13.9709C10.2941 13.9907 10.3468 14.0005 10.3998 13.9997C10.4528 14.0005 10.5054 13.9907 10.5546 13.9709C10.6038 13.9512 10.6485 13.9218 10.6863 13.8846C10.724 13.8474 10.754 13.803 10.7745 13.7541C10.7949 13.7052 10.8055 13.6528 10.8055 13.5997C10.8055 13.5467 10.7949 13.4943 10.7745 13.4454C10.754 13.3965 10.724 13.3521 10.6863 13.3149C10.6485 13.2777 10.6038 13.2483 10.5546 13.2286C10.5054 13.2088 10.4528 13.199 10.3998 13.1997Z" fill="#F9F9F9"/>
<path fill-rule="evenodd" clip-rule="evenodd" d="M3.20599 11.5996C3.15299 11.5989 3.10036 11.6087 3.05117 11.6285C3.00199 11.6482 2.95722 11.6776 2.91947 11.7148C2.88172 11.752 2.85175 11.7964 2.83129 11.8453C2.81083 11.8942 2.80029 11.9466 2.80029 11.9997C2.80029 12.0527 2.81083 12.1051 2.83129 12.154C2.85175 12.2029 2.88172 12.2473 2.91947 12.2845C2.95722 12.3217 3.00199 12.3511 3.05117 12.3708C3.10036 12.3906 3.15299 12.4004 3.20599 12.3997H8.506H11.9998C12.0528 12.4004 12.1054 12.3906 12.1546 12.3708C12.2038 12.3511 12.2485 12.3217 12.2863 12.2845C12.324 12.2473 12.354 12.2029 12.3745 12.154C12.3949 12.1051 12.4055 12.0527 12.4055 11.9997C12.4055 11.9466 12.3949 11.8942 12.3745 11.8453C12.354 11.7964 12.324 11.752 12.2863 11.7148C12.2485 11.6776 12.2038 11.6482 12.1546 11.6285C12.1054 11.6087 12.0528 11.5989 11.9998 11.5996H8.506H3.20599Z" fill="#F9F9F9"/>
</svg>
