<svg width="80" height="80" viewBox="0 0 80 80" fill="none" xmlns="http://www.w3.org/2000/svg">
<path d="M0.987793 0.987549H23.1111V4.14802H0.987793V0.987549Z" fill="#95578F"/>
<path d="M19.9506 19.9504H42.074V23.1109H19.9506V19.9504Z" fill="#95578F"/>
<path d="M38.9135 38.9132H61.0368V42.0737H38.9135V38.9132Z" fill="#95578F"/>
<path d="M57.8763 57.8761H79.9997V61.0366H57.8763V57.8761Z" fill="#95578F"/>
<path d="M19.9506 23.1109L19.9506 0.987549H23.1111V23.1109H19.9506Z" fill="#95578F"/>
<path d="M38.9135 42.0737V19.9504H42.074V42.0737H38.9135Z" fill="#95578F"/>
<path d="M57.8763 61.0366V38.9132H61.0368V61.0366H57.8763Z" fill="#95578F"/>
<path d="M76.8392 79.9994V57.8761H79.9997V79.9994H76.8392Z" fill="#95578F"/>
<path d="M-0.000488281 0H22.1228V3.16047H-0.000488281V0Z" fill="#E796DF"/>
<path d="M18.9624 18.9628H41.0857V22.1233H18.9624V18.9628Z" fill="#E796DF"/>
<path d="M37.9252 37.9257H60.0485V41.0862H37.9252V37.9257Z" fill="#E796DF"/>
<path d="M56.8881 56.8885H79.0114V60.049H56.8881V56.8885Z" fill="#E796DF"/>
<path d="M18.9624 22.1233L18.9624 0H22.1228V22.1233H18.9624Z" fill="#E796DF"/>
<path d="M37.9252 41.0862V18.9628H41.0857V41.0862H37.9252Z" fill="#E796DF"/>
<path d="M56.8881 60.049V37.9257H60.0485V60.049H56.8881Z" fill="#E796DF"/>
<path d="M75.8509 79.0119V56.8885H79.0114V79.0119H75.8509Z" fill="#E796DF"/>
</svg>
