<svg width="80" height="80" viewBox="0 0 80 80" fill="none" xmlns="http://www.w3.org/2000/svg">
<path d="M80 80L57.8765 80L57.8765 76.8395L80 76.8395L80 80Z" fill="#95578F"/>
<path d="M61.037 61.037L38.9136 61.037L38.9136 57.8765L61.037 57.8765L61.037 61.037Z" fill="#95578F"/>
<path d="M42.0741 42.0741L19.9506 42.0741L19.9506 38.9136L42.0741 38.9136L42.0741 42.0741Z" fill="#95578F"/>
<path d="M23.1111 23.1111L0.987671 23.1111L0.987671 19.9506L23.1111 19.9506L23.1111 23.1111Z" fill="#95578F"/>
<path d="M61.037 57.8765L61.037 80L57.8765 80L57.8765 57.8765L61.037 57.8765Z" fill="#95578F"/>
<path d="M42.0741 38.9136L42.0741 61.037L38.9136 61.037L38.9136 38.9136L42.0741 38.9136Z" fill="#95578F"/>
<path d="M23.1111 19.9506L23.1111 42.0741L19.9506 42.0741L19.9506 19.9506L23.1111 19.9506Z" fill="#95578F"/>
<path d="M4.14817 0.987659L4.14816 23.1111L0.987671 23.1111L0.987673 0.987659L4.14817 0.987659Z" fill="#95578F"/>
<path d="M79.0122 79.0125L56.8888 79.0124L56.8888 75.852L79.0122 75.852L79.0122 79.0125Z" fill="#E796DF"/>
<path d="M60.0492 60.0495L37.9258 60.0495L37.9258 56.889L60.0492 56.889L60.0492 60.0495Z" fill="#E796DF"/>
<path d="M41.0863 41.0865L18.9628 41.0865L18.9628 37.926L41.0863 37.926L41.0863 41.0865Z" fill="#E796DF"/>
<path d="M22.1233 22.1236L-0.000122342 22.1236L-0.000122066 18.9631L22.1233 18.9631L22.1233 22.1236Z" fill="#E796DF"/>
<path d="M60.0492 56.889L60.0492 79.0124L56.8888 79.0124L56.8888 56.889L60.0492 56.889Z" fill="#E796DF"/>
<path d="M41.0863 37.926L41.0863 60.0495L37.9258 60.0495L37.9258 37.926L41.0863 37.926Z" fill="#E796DF"/>
<path d="M22.1233 18.9631L22.1233 41.0865L18.9628 41.0865L18.9628 18.9631L22.1233 18.9631Z" fill="#E796DF"/>
<path d="M3.16037 0.000110194L3.16037 22.1236L-0.000122342 22.1236L-0.000120408 0.000109918L3.16037 0.000110194Z" fill="#E796DF"/>
</svg>
